<svg xmlns="http://www.w3.org/2000/svg" fill="none" viewBox="0 0 82 82">
    <path fill="#fff"
        d="M61.3401 21.22c-3.4 1.41-6.1 2.67-8.12 3.8-2.02 1.13-3.59 2.24-4.72 3.35-1.11 1.11-2.22 2.67-3.35 4.67-1.13 2.01-2.41 4.76-3.86 8.25h-1.15c-1.46-3.49-2.76-6.24-3.89-8.25-1.13-2.01-2.23-3.57-3.32-4.67-1.13-1.11-2.7-2.22-4.71-3.35-2.02-1.13-4.73-2.39-8.15-3.8v-1.15c3.43-1.41 6.16-2.67 8.18-3.8 2.02-1.13 3.58-2.24 4.69-3.35 1.09-1.11 2.2-2.66 3.32-4.67 1.13-2.01 2.42-4.76 3.89-8.25h1.15c1.44 3.49 2.73 6.24 3.86 8.25s2.24 3.57 3.35 4.67c1.09 1.11 2.64 2.22 4.66 3.35s4.74 2.39 8.18 3.8v1.15h-.01Zm-1.77-.48v-.23c-2.63-.26-5.14-.73-7.53-1.41-2.39-.68-4.74-1.59-7.05-2.73-1.15-2.31-2.06-4.66-2.75-7.06-.68-2.4-1.16-4.91-1.42-7.52h-.22c-.26 2.61-.74 5.11-1.42 7.52-.69 2.4-1.59 4.76-2.72 7.06-2.4 1.15-4.8 2.06-7.19 2.75-2.39.69-4.87 1.15-7.42 1.39v.23c2.55.26 5.03.74 7.42 1.42 2.39.69 4.79 1.6 7.19 2.75 1.14 2.38 2.06 4.78 2.73 7.18.68 2.4 1.15 4.87 1.41 7.4h.22c.26-2.53.73-5 1.41-7.4.67-2.4 1.59-4.79 2.76-7.18 2.31-1.14 4.66-2.06 7.05-2.75 2.39-.68 4.9-1.16 7.53-1.42Z" />
    <path fill="#fff"
        d="M61.3401 61.37c-3.4 1.41-6.1 2.67-8.12 3.8-2.02 1.13-3.59 2.24-4.72 3.35-1.11 1.11-2.22 2.67-3.35 4.67-1.13 2.01-2.41 4.76-3.86 8.25h-1.15c-1.46-3.49-2.76-6.24-3.89-8.25-1.13-2.01-2.23-3.57-3.32-4.67-1.13-1.11-2.7-2.22-4.71-3.35-2.02-1.13-4.73-2.39-8.15-3.8v-1.15c3.43-1.41 6.16-2.67 8.18-3.8 2.02-1.13 3.58-2.24 4.69-3.35 1.09-1.11 2.2-2.66 3.32-4.67 1.13-2.01 2.42-4.76 3.89-8.25h1.15c1.44 3.49 2.73 6.24 3.86 8.25s2.24 3.57 3.35 4.67c1.09 1.11 2.64 2.22 4.66 3.35s4.74 2.39 8.18 3.8v1.15h-.01Zm-1.77-.48v-.23c-2.63-.26-5.14-.73-7.53-1.41-2.39-.68-4.74-1.59-7.05-2.73-1.15-2.31-2.06-4.66-2.75-7.06-.68-2.4-1.16-4.91-1.42-7.52h-.22c-.26 2.61-.74 5.11-1.42 7.52-.69 2.4-1.59 4.76-2.72 7.06-2.4 1.15-4.8 2.06-7.19 2.75-2.39.69-4.87 1.15-7.42 1.39v.23c2.55.26 5.03.74 7.42 1.42 2.39.69 4.79 1.6 7.19 2.75 1.14 2.38 2.06 4.78 2.73 7.18.68 2.4 1.15 4.87 1.41 7.4h.22c.26-2.53.73-5 1.41-7.4.67-2.4 1.59-4.79 2.76-7.18 2.31-1.14 4.66-2.06 7.05-2.75 2.39-.68 4.9-1.16 7.53-1.42Z" />
    <path fill="#fff"
        d="M81.3801 41.3c-3.4 1.41-6.1 2.67-8.12 3.8-2.02 1.13-3.59 2.24-4.72 3.35-1.11 1.11-2.22 2.67-3.35 4.67-1.13 2.01-2.41 4.76-3.86 8.25h-1.15c-1.46-3.49-2.76-6.24-3.89-8.25-1.13-2.01-2.23-3.57-3.32-4.67-1.13-1.11-2.7-2.22-4.71-3.35-2.02-1.13-4.73-2.39-8.15-3.8v-1.15c3.43-1.41 6.16-2.67 8.18-3.8 2.02-1.13 3.58-2.24 4.69-3.35 1.09-1.11 2.2-2.66 3.32-4.67 1.13-2.01 2.42-4.76 3.89-8.25h1.15c1.44 3.49 2.73 6.24 3.86 8.25s2.24 3.57 3.35 4.67c1.09 1.11 2.64 2.22 4.66 3.35s4.74 2.39 8.18 3.8v1.15h-.01Zm-1.77-.48v-.23c-2.63-.26-5.14-.73-7.53-1.41-2.39-.68-4.74-1.59-7.05-2.73-1.15-2.31-2.06-4.66-2.75-7.06-.68-2.4-1.16-4.91-1.42-7.52h-.22c-.26 2.61-.74 5.11-1.42 7.52-.69 2.4-1.59 4.76-2.72 7.06-2.4 1.15-4.8 2.06-7.19 2.75-2.39.69-4.87 1.15-7.42 1.39v.23c2.55.26 5.03.74 7.42 1.42 2.39.69 4.79 1.6 7.19 2.75 1.14 2.38 2.06 4.78 2.73 7.18.68 2.4 1.15 4.87 1.41 7.4h.22c.26-2.53.73-5 1.41-7.4.67-2.4 1.59-4.79 2.76-7.18 2.31-1.14 4.66-2.06 7.05-2.75 2.39-.68 4.9-1.16 7.53-1.42Z" />
    <path fill="#fff"
        d="M41.27 41.3c-3.4 1.41-6.1 2.67-8.12 3.8-2.02 1.13-3.59 2.24-4.72 3.35-1.11 1.11-2.22 2.67-3.35 4.67-1.13 2.01-2.41 4.76-3.86 8.25h-1.15c-1.46-3.49-2.76-6.24-3.89-8.25-1.13-2.01-2.23-3.57-3.32-4.67-1.13-1.11-2.7-2.22-4.71-3.35-2.02-1.13-4.73-2.39-8.15-3.8v-1.15c3.43-1.41 6.16-2.67 8.18-3.8 2.02-1.13 3.58-2.24 4.69-3.35 1.09-1.11 2.2-2.66 3.32-4.67 1.13-2.01 2.42-4.76 3.89-8.25h1.15c1.44 3.49 2.73 6.24 3.86 8.25s2.24 3.57 3.35 4.67c1.09 1.11 2.64 2.22 4.66 3.35s4.74 2.39 8.18 3.8v1.15h-.01Zm-1.77-.48v-.23c-2.63-.26-5.14-.73-7.53-1.41-2.39-.68-4.74-1.59-7.05-2.73-1.15-2.31-2.06-4.66-2.75-7.06-.68-2.4-1.16-4.91-1.42-7.52h-.22c-.26 2.61-.74 5.11-1.42 7.52-.69 2.4-1.59 4.76-2.72 7.06-2.4 1.15-4.8 2.06-7.19 2.75-2.39.69-4.87 1.15-7.42 1.39v.23c2.55.26 5.03.74 7.42 1.42 2.39.69 4.79 1.6 7.19 2.75 1.14 2.38 2.06 4.78 2.73 7.18.68 2.4 1.15 4.87 1.41 7.4h.22c.26-2.53.73-5 1.41-7.4.67-2.4 1.59-4.79 2.76-7.18 2.31-1.14 4.66-2.06 7.05-2.75 2.39-.68 4.9-1.16 7.53-1.42Z" />
</svg>